PathFileType	4	(X/Y/Z)	TVC_60_BWA01_walk_RCNL2025.trc
DataRate	CameraRate	NumFrames	NumMarkers	Units	OrigDataRate	OrigDataStartFrame	OrigNumFrames
100	100	4	27	mm	100	241	384
Frame#	Time	R_Shoulder			L_Shoulder			C7			J_Notch			R_Elbow			L_Elbow			R_Wrist			L_Wrist			R_Asis			L_Asis			R_Psis			L_Psis			Sacral			Thoracic			Sternum			R_Thigh_Lateral			R_Knee_Lateral			R_Shank_Lateral			R_Ankle_Lateral			R_Heel			R_Toe			L_Thigh_Lateral			L_Knee_Lateral			L_Shank_Lateral			L_Ankle_Lateral			L_Heel			L_Toe		
		X1	Y1	Z1	X2	Y2	Z2	X3	Y3	Z3	X4	Y4	Z4	X5	Y5	Z5	X6	Y6	Z6	X7	Y7	Z7	X8	Y8	Z8	X9	Y9	Z9	X10	Y10	Z10	X11	Y11	Z11	X12	Y12	Z12	X13	Y13	Z13	X14	Y14	Z14	X15	Y15	Z15	X16	Y16	Z16	X17	Y17	Z17	X18	Y18	Z18	X19	Y19	Z19	X20	Y20	Z20	X21	Y21	Z21	X22	Y22	Z22	X23	Y23	Z23	X24	Y24	Z24	X25	Y25	Z25	X26	Y26	Z26	X27	Y27	Z27
241	2.40000000	878.376953	1316.261353	51.399124	853.102905	1349.718018	-298.871185	809.033142	1400.067871	-120.510498	918.579529	1270.308594	-132.123749	834.747925	988.601196	138.452179	796.674011	1010.255554	-361.916016	922.765411	767.407745	154.556351	870.062408	791.890594	-415.735504	906.466858	912.768738	8.078914	883.945740	911.755676	-277.354462	723.377441	911.195679	-60.439190	715.264771	908.501160	-170.792770	719.321106	909.848419	-115.615980	753.233276	1193.103149	-125.048752	945.275879	1075.121582	-130.017319	897.968750	597.596863	72.119179	933.222961	441.355011	-10.169523	899.867310	222.575027	10.331567	851.344299	61.912506	-69.852081	811.248596	59.424969	-121.038864	979.948425	41.679554	-72.068222	872.903625	628.244934	-337.826355	921.861511	449.824097	-271.222321	775.147278	334.716492	-295.015656	633.293884	195.946838	-218.162766	609.969971	221.956268	-166.322693	704.581909	94.597015	-233.663834
242	2.41000000	886.278076	1316.628052	51.927475	859.923035	1349.930420	-298.190155	816.444275	1400.525391	-119.731476	925.679138	1270.517700	-131.581802	846.739868	988.758484	139.810486	803.145142	1010.431824	-360.798920	937.554169	768.595642	154.232079	876.503326	792.025391	-414.464401	912.948608	913.032288	9.114314	890.598633	912.481567	-276.387329	729.864136	911.600098	-59.636196	721.832275	908.849365	-170.006958	725.848206	910.224731	-114.821577	760.184631	1193.687988	-124.029808	951.937134	1075.283325	-129.419708	902.319275	597.422058	72.605240	935.514648	440.885620	-9.878736	900.757568	222.215927	10.482868	851.471497	61.895477	-69.931458	811.400269	59.556370	-121.116722	979.934937	41.622040	-72.083900	884.899292	629.618652	-336.813385	938.207947	452.398224	-269.921722	795.085815	333.450623	-295.034851	655.814941	191.327759	-219.351089	630.904541	216.749496	-168.003265	730.645935	92.449211	-233.662003
243	2.42000000	894.121277	1316.970581	52.432728	866.675659	1350.094727	-297.534973	823.799927	1400.924316	-118.981514	932.730469	1270.683105	-131.065308	858.689880	988.912170	141.077591	809.588074	1010.548950	-359.720428	952.307037	769.836029	153.816631	883.014130	792.142487	-413.259766	919.392761	913.255066	10.125393	897.280579	913.189148	-275.426514	736.325500	911.954285	-58.896370	728.396057	909.161194	-169.290817	732.360779	910.557739	-114.093594	767.088562	1194.214600	-123.040932	958.569763	1075.419922	-128.833862	906.627563	597.244934	73.057236	937.775940	440.428406	-9.615211	901.587646	221.871475	10.623911	851.588379	61.884796	-70.013237	811.547119	59.682655	-121.182884	979.907104	41.567741	-72.092842	897.148438	631.130615	-335.859894	954.247009	454.971741	-268.572266	815.320801	331.580963	-295.176331	678.913879	185.899017	-220.743347	652.312195	210.733383	-169.994171	757.395508	89.718918	-233.538895
244	2.43000000	901.903931	1317.286011	52.917629	873.378357	1350.210693	-296.904327	831.104919	1401.262085	-118.260818	939.741882	1270.803955	-130.569458	870.587036	989.059143	142.250671	816.009521	1010.608765	-358.680725	967.013367	771.127228	153.314186	889.588837	792.238495	-412.122070	925.807617	913.437317	11.112641	904.004028	913.868835	-274.474396	742.771790	912.256653	-58.222164	734.968872	909.431274	-168.646255	738.870331	910.843964	-113.434210	773.953430	1194.679199	-122.087433	965.184265	1075.528931	-128.255219	910.877258	597.063965	73.485306	940.011047	439.980804	-9.371422	902.383606	221.539352	10.753445	851.694519	61.883293	-70.094063	811.682129	59.806213	-121.229202	979.867126	41.518311	-72.092499	909.569153	632.773865	-334.966675	969.936768	457.504639	-267.189178	835.798889	329.170380	-295.411652	702.576538	179.758545	-222.295746	674.217102	203.967987	-172.221283	784.774048	86.518036	-233.353058
